<?xml version="1.0" standalone="no"?>
<!DOCTYPE svg PUBLIC "-//W3C//DTD SVG 20010904//EN"
 "http://www.w3.org/TR/2001/REC-SVG-20010904/DTD/svg10.dtd">
<svg version="1.0" xmlns="http://www.w3.org/2000/svg"
 width="192.000000pt" height="192.000000pt" viewBox="0 0 192.000000 192.000000"
 preserveAspectRatio="xMidYMid meet">
<metadata>
Created by potrace 1.11, written by Peter Selinger 2001-2013
</metadata>
<g transform="translate(0.000000,192.000000) scale(0.100000,-0.100000)"
fill="#000000" stroke="none">
<path d="M139 1902 c-3 -69 -1 -874 3 -877 3 -3 342 -4 755 -3 l750 3 -228
124 -227 124 -301 -1 -301 0 -2 205 -3 204 -70 38 c-38 20 -124 66 -190 101
-66 35 -135 71 -152 81 -31 18 -33 18 -34 1z"/>
<path d="M1317 1911 c-3 -5 -1 -497 2 -546 1 -20 22 -35 166 -115 22 -12 72
-41 110 -64 127 -77 185 -108 186 -99 3 49 1 594 -2 597 -15 13 -460 232 -462
227z"/>
<path d="M257 899 c5 -4 78 -45 163 -91 85 -47 185 -101 222 -121 l66 -37 304
0 304 0 0 -196 c-1 -108 1 -199 4 -203 5 -7 60 -37 297 -162 54 -29 113 -61
131 -71 17 -11 32 -16 33 -11 3 29 1 885 -2 888 -3 2 -348 5 -767 7 -419 2
-759 1 -755 -3z"/>
<path d="M139 823 c-3 -33 -1 -574 2 -577 9 -7 438 -226 443 -226 3 0 6 125 6
278 l-1 277 -156 90 c-259 149 -293 167 -294 158z"/>
</g>
</svg>
