<svg width="138" height="28" xmlns="http://www.w3.org/2000/svg">
    <title>Hostinger logo</title>
    <g fill="currentColor" fill-rule="evenodd">
        <path d="M41.3829992 8.21979525h2.5813719V19.7325449h-2.5813719v-4.8841898h-4.3351408v4.8841898h-2.5813719V8.21979525h2.5813719v4.40215915h4.3351408z"/>
        <path d="M49.99173689 13.96806229c0 .56449851.06871627 1.073941.20661156 1.52809515.13789528.45438646.33664033.84465703.59600377 1.17127634.25866934.32708391.57610614.57866905.95138491.75568463.37481604.1777125.80492901.26645259 1.29057029.26645259.47407287 0 .9016408-.08874009 1.2824724-.26645259.3801375-.17701558.70035071-.42860072.95925142-.75568463.25913208-.32661931.45810849-.71688988.59600377-1.17127634.13789529-.45415415.20684293-.96359664.20684293-1.52809515 0-.56519542-.06894764-1.07742555-.20684293-1.537155-.13789528-.45949714-.33687169-.85232306-.59600377-1.17940697-.25890071-.32661931-.57911392-.57890136-.95925142-.75568464-.3808316-.17724789-.80839953-.26575568-1.2824724-.26575568-.48564128 0-.91575425.09129544-1.29057029.27388632-.37527877.18282318-.69271557.43766057-.95138491.76451218-.25936344.3266193-.45810849.71967753-.59600377 1.17917467-.13789529.45996175-.20661156.96661659-.20661156 1.52042912zm8.75288001 0c0 .98543321-.1464559 1.85239141-.4382109 2.5994808-.2926804.7477863-.6927156 1.37361301-1.19987405 1.87724791-.50738986.5043318-1.11149151.8834518-1.81184222 1.1380569-.70035071.2550697-1.4534533.3823722-2.25838231.3823722-.7834118 0-1.52216958-.1273025-2.21719883-.3823722-.69502925-.2546051-1.30190731-.6337251-1.82017147-1.1380569-.51872688-.5036349-.92639717-1.12946161-1.22439905-1.87724791-.29777052-.74708939-.44700284-1.61404759-.44700284-2.5994808 0-.98589781.15455378-1.85262372.46342996-2.59994541.30864481-.7477863.72533844-1.37640069 1.24938679-1.88584318.52358562-.50944248 1.13046368-.89135012 1.82017147-1.14618751.68901368-.2550697 1.41458349-.38260455 2.17578397-.38260455.78294905 0 1.52193821.12753485 2.21719882.38260455.69479788.2548374 1.30144458.63674503 1.8199401 1.14618751.51826416.50944249.92662856 1.13805688 1.22439906 1.88584318.2980019.74732169.4467715 1.6140476.4467715 2.59994541z"/>
        <path d="M65.2353664 17.7557079c.3639417 0 .6644886-.03019948.9016408-.09152772.2371521-.06063132.4275679-.14356382.5707846-.2494944.1432168-.10476907.242705-.22928397.2980019-.37331239.0552969-.14379613.0828297-.30455043.0828297-.48179832 0-.37633234-.1767651-.68971032-.5296011-.93850781-.3530675-.24949441-.9597142-.51780543-1.8199401-.80632689-.3752788-.13241323-.7503262-.28503691-1.1253736-.45647719-.3750474-.17144029-.7114564-.38748293-1.0092269-.64789562-.2975392-.26018039-.5404755-.57588141-.7278835-.94733536-.1876394-.37075705-.2813434-.82189125-.2813434-1.35363491 0-.53174366.0992568-1.01075434.2977705-1.43703202.1987451-.42650999.4798571-.78890409.8440302-1.08834384.3639417-.29920744.804929-.5284914 1.3234245-.68947802.5184955-.1602897 1.1029309-.24113146 1.7540003-.24113146.7720747 0 1.4395712.08362941 2.002258.2494944.562224.1660973 1.025654.34915279 1.3895957.54846955l-.7443106 2.04334523c-.3202132-.1660973-.676057-.31291337-1.0673002-.44044822-.3917059-.12707024-.8632337-.19118612-1.4145835-.19118612-.6179837 0-1.0619788.08641705-1.3322165.25785734-.2702377.17167259-.405588.43487293-.405588.78890409 0 .21069965.0499755.38817984.1492323.53174366.0990255.14402843.2399286.27411862.4217838.39050288.1820865.11615196.3917059.22161794.6290893.31546872.2366894.09431539.4988293.19095382.7859569.2906122.5953097.22185024 1.1138052.44044822 1.5552552.65649086.4409872.21604264.8079368.46809239 1.1003858.75591694.2919864.28782455.5099349.62582674.6536144 1.01354198.1429854.38794753.2149408.85836296.2149408 1.41171088 0 1.07440561-.3752788 1.90791206-1.1253736 2.50028706-.7500948.5928396-1.8807898.8892594-3.3918537.8892594-.5073899 0-.965267-.0306642-1.3734001-.0915278-.408133-.0613282-.7692983-.1358978-1.0837273-.2244056-.3141977-.0885078-.5846668-.1825908-.8109446-.2822492-.2260465-.0998907-.4162309-.1937415-.5707847-.2827139l.7283463-2.05983879c.341499.18863077.7635141.35728342 1.2658139.50642253.5016056.14983602 1.116813.22463786 1.8446965.22463786"/>
        <path d="M81.1245123 8.21979485v2.20967483H77.666256v9.30307482h-2.5811406v-9.30307482h-3.4584878V8.21979485z"/>
        <path d="M83.9914154 19.7328233h2.581372V8.21984131h-2.581372z"/>
        <path d="M98.1271164 19.7325678c-.7389891-1.3178601-1.5385967-2.61899436-2.3992853-3.90409961-.8606887-1.28487295-1.7762116-2.49749938-2.7465687-3.63834391v7.54244352h-2.5482863V8.21981808h2.1012835c.3637104.36518175.7665219.81376061 1.2079719 1.34550427.4412187.53174366.8903038 1.09949443 1.3484123 1.70302.4576457.60352557.9127465 1.22935231 1.3650707 1.87701563.452093.64789562.8768845 1.27070241 1.2741432 1.86888499V8.21981808h2.5647135V19.7325678h-2.1674548"/>
        <path d="M109.746807 10.21342704c-1.201725 0-2.070743.33498225-2.605897 1.00494674-.5349226.67019679-.8021526 1.58640343-.8021526 2.74978143 0 .56426621.0659399 1.07696095.1982823 1.53645809.1325739.45926484.3310875.85511071.5955411 1.18753761.2651476.3324269.5957724.59005195.9930311.77287513.3970274.18259087.8599946.27388636 1.3895958.27388636.2866648 0 .5323776-.0055753.7366754-.01649363.2038352-.01091828.3831453-.03298715.5374677-.06643892v-4.00352566h2.581372v5.69818271c-.3091076.1219596-.8051604.2518175-1.4893154.3900383-.6836922.1382208-1.5277224.207912-2.5316278.207912-.860226 0-1.6408613-.1331102-2.3409807-.3986335-.7008134-.2662203-1.2991309-.6534709-1.7956464-1.1631457-.4958215-.5092102-.8794295-1.13526926-1.1496673-1.87724796-.2707004-.7415141-.4053566-1.58895878-.4053566-2.54140483 0-.96382894.149001-1.81661661.4470029-2.55882762.2975391-.74174639.7052094-1.37082539 1.2241677-1.88561087.5184955-.51501778 1.1276872-.90528835 1.8282693-1.17104403.7003507-.26598798 1.4476691-.39933043 2.2419552-.39933043.5404755 0 1.0284304.03647171 1.4643276.10825362.4356658.07224652.8104818.15517902 1.1249108.2494944.3146604.09385079.5740239.19072152.7780904.2906122.2042979.09965838.3498283.1774802.4384422.23276853l-.744542 2.07633238c-.3532988-.18816617-.7586554-.35124351-1.2160698-.48992895-.4581085-.13845313-.9569377-.2074474-1.4978759-.2074474"/>
        <path d="M116.9824686 19.7325678V8.21981808h7.7436531v2.17622307h-5.1625125v2.25915557h4.5833986v2.12674234h-4.5833986v2.77440565h5.5433441v2.17622309z"/>
        <path d="M131.7296982 10.29633631c-.1876394 0-.3553811.00557529-.5046134.01649358-.1485383.01138289-.2894413.02253348-.4220151.03321946v3.12309382h.7283462c.9703571 0 1.6656177-.12126264 2.084625-.36518175.41947-.2432222.628858-.6588139.628858-1.2460782 0-.56496312-.2123957-.96591967-.6371873-1.2047281-.4247915-.2376469-1.0506417-.35681881-1.8780134-.35681881m-.1487696-2.20967483c1.7209146 0 3.0387863.30710577 3.9543092.92201423.9155229.61467616 1.3736314 1.56990986 1.3736314 2.8659334 0 .80818531-.1846316 1.46490848-.5543576 1.96877567-.3692632.50363489-.9016408.89994536-1.59667 1.18753761.2318307.28828916.4743042.61769611.7278835.98868546.2535792.37122166.5048448.75893689.7531026 1.1631457.2480264.40420881.4881863.82491125.7197856 1.26210715.2313679.4378929.4465401.8669582.6448224 1.2876606h-2.8853894c-.2105448-.3765646-.423866-.7584723-.6392696-1.1461875-.2160976-.3874829-.437054-.7642799-.6644886-1.12992624-.2262779-.36564636-.4513989-.71131458-.6723552-1.03793389-.2218819-.32708391-.4435323-.6232714-.6644887-.88949169h-1.2743745v4.20353932h-2.5809092V8.38540431c.5624554-.11011206 1.1443457-.18816617 1.7454396-.23207161.6010938-.04460235 1.1387929-.06667122 1.6133285-.06667122"/>
        <path d="M.00023137 12.975219V.00058076L6.50328963 3.4923409v5.8456957l8.60873777.00418147 6.608562 3.63300093H.00023137zM16.8725059 8.26827708V.00011615l6.6784352 3.40487848V12.174932l-6.6784352-3.90665492zm0 15.85822672V18.331218l-8.67514032-.0060399c.00809788.0385625-6.71823044-3.6910769-6.71823044-3.6910769l22.07180596.1043045v12.9744059l-6.6784352-3.5863078zM0 24.1265038l.00023137-8.4786283 6.50305826 3.814198V27.53115L0 24.1265038z"/>
    </g>
</svg>